<?xml version="1.0" encoding="utf-8"?>
<!-- Generator: Adobe Illustrator 16.0.0, SVG Export Plug-In . SVG Version: 6.00 Build 0)  -->
<!DOCTYPE svg PUBLIC "-//W3C//DTD SVG 1.1//EN" "http://www.w3.org/Graphics/SVG/1.1/DTD/svg11.dtd">
<svg version="1.1" id="Layer_1" xmlns="http://www.w3.org/2000/svg" xmlns:xlink="http://www.w3.org/1999/xlink" x="0px" y="0px"
	 width="1024px" height="768px" viewBox="0 0 1024 768" enable-background="new 0 0 1024 768" xml:space="preserve">
<rect x="16" y="213" display="none" width="991" height="353"/>
<g display="none">
	<path display="inline" fill="#F18F0A" d="M344.977,391.325h-10.836v-7.785h30.842v7.785h-10.955v33.21h-9.052L344.977,391.325
		L344.977,391.325z"/>
	<path display="inline" fill="#F18F0A" d="M379.505,424.535v-16.788l-12.682-24.207h10.419l4.048,9.854
		c1.25,2.979,2.144,5.171,3.096,7.847h0.119c0.895-2.557,1.846-4.927,3.037-7.847l4.048-9.854h10.184l-13.22,23.903v17.092H379.505
		L379.505,424.535z"/>
	<path display="inline" fill="#F18F0A" d="M405.045,384.088c2.798-0.487,6.729-0.851,12.265-0.851c5.599,0,9.585,1.094,12.267,3.285
		c2.619,2.068,4.287,5.476,4.287,9.487c0,4.018-1.25,7.481-3.691,9.732c-3.096,2.919-7.68,4.315-13.039,4.315
		c-1.189,0-2.262-0.061-3.096-0.241v14.72h-8.99L405.045,384.088L405.045,384.088z M414.036,402.699
		c0.772,0.183,1.667,0.243,3.036,0.243c4.821,0,7.8-2.493,7.8-6.629c0-3.771-2.56-6.021-7.146-6.021
		c-1.784,0-3.034,0.121-3.689,0.304V402.699z"/>
	<path display="inline" fill="#F18F0A" d="M476.369,403.611c0,13.503-7.918,21.593-19.707,21.593
		c-11.848,0-18.874-9.187-18.874-20.923c0-12.286,7.74-21.471,19.528-21.471C469.641,382.811,476.369,392.239,476.369,403.611z
		 M447.374,404.099c0,8.089,3.691,13.745,9.764,13.745c6.132,0,9.646-5.96,9.646-13.927c0-7.421-3.396-13.746-9.646-13.746
		C450.946,390.171,447.374,396.132,447.374,404.099z"/>
	<path display="inline" fill="#F18F0A" d="M482.5,415.472c1.607,0.913,5.299,2.435,8.99,2.435c4.703,0,7.084-2.312,7.084-5.229
		c0-3.953-3.812-5.718-7.798-5.718h-3.691v-6.629h3.573c3.037,0,6.847-1.218,6.847-4.563c0-2.371-1.847-4.136-5.715-4.136
		c-3.156,0-6.49,1.397-8.038,2.371l-1.846-6.688c2.322-1.521,6.906-2.98,11.967-2.98c8.217,0,12.8,4.439,12.8,9.854
		c0,4.196-2.321,7.543-7.084,9.187v0.121c4.646,0.852,8.396,4.438,8.396,9.67c0,6.935-6.015,12.044-15.838,12.044
		c-5,0-9.229-1.339-11.489-2.738L482.5,415.472z"/>
	<path display="inline" fill="#FFFFFF" d="M523.757,387.313v7.604h6.966v5.596h-6.966v13.077c0,3.649,0.953,5.476,3.751,5.476
		c1.312,0,2.024-0.063,2.858-0.306l0.118,5.656c-1.071,0.425-3.036,0.791-5.301,0.791c-2.735,0-4.939-0.912-6.311-2.433
		c-1.607-1.703-2.322-4.44-2.322-8.333V400.51h-4.105v-5.596h4.105v-5.534L523.757,387.313z"/>
	<path display="inline" fill="#FFFFFF" d="M562.217,415.655c0,3.525,0.118,6.444,0.238,8.88h-6.37l-0.357-4.44h-0.18
		c-1.249,2.068-4.105,5.109-9.346,5.109s-10.063-3.224-10.063-12.896v-17.395h7.323v16.118c0,4.927,1.547,8.089,5.417,8.089
		c2.979,0,4.884-2.068,5.597-4.014c0.301-0.608,0.418-1.46,0.418-2.313v-17.882h7.322L562.217,415.655L562.217,415.655z"/>
	<path display="inline" fill="#FFFFFF" d="M578.528,387.313v7.604h6.965v5.596h-6.965v13.077c0,3.649,0.952,5.476,3.751,5.476
		c1.309,0,2.021-0.063,2.855-0.306l0.119,5.656c-1.071,0.425-3.036,0.791-5.3,0.791c-2.737,0-4.941-0.912-6.312-2.433
		c-1.606-1.703-2.321-4.44-2.321-8.333V400.51h-4.107v-5.596h4.107v-5.534L578.528,387.313z"/>
	<path display="inline" fill="#FFFFFF" d="M618.238,409.451c0,10.888-7.502,15.753-14.887,15.753
		c-8.153,0-14.524-5.717-14.524-15.269c0-9.729,6.252-15.69,15.004-15.69C612.464,394.245,618.238,400.449,618.238,409.451z
		 M596.389,409.755c0,5.717,2.798,10.036,7.204,10.036c4.167,0,7.084-4.136,7.084-10.157c0-4.623-2.021-9.976-7.022-9.976
		C598.472,399.658,596.389,404.829,596.389,409.755z"/>
	<path display="inline" fill="#FFFFFF" d="M624.25,404.463c0-4.014-0.06-6.934-0.238-9.549h6.313l0.299,5.596h0.178
		c1.43-4.136,4.823-6.265,7.979-6.265c0.715,0,1.133,0.062,1.728,0.183v6.994c-0.654-0.121-1.31-0.182-2.203-0.182
		c-3.453,0-5.894,2.25-6.549,5.653c-0.119,0.672-0.179,1.462-0.179,2.253v15.389h-7.323v-20.072H624.25z"/>
	<path display="inline" fill="#FFFFFF" d="M653.243,386.643c0,2.189-1.607,4.016-4.168,4.016c-2.441,0-4.048-1.824-4.048-4.016
		c0-2.312,1.666-4.075,4.105-4.075C651.636,382.567,653.184,384.331,653.243,386.643z M645.443,424.535v-29.621h7.322v29.621
		H645.443z"/>
	<path display="inline" fill="#FFFFFF" d="M683.189,417.419c0,2.676,0.117,5.291,0.476,7.116h-6.608l-0.533-3.284h-0.181
		c-1.727,2.313-4.763,3.953-8.571,3.953c-5.838,0-9.109-4.319-9.109-8.819c0-7.421,6.489-11.252,17.206-11.189v-0.486
		c0-1.946-0.774-5.17-5.896-5.17c-2.855,0-5.834,0.912-7.799,2.188l-1.43-4.864c2.144-1.339,5.895-2.615,10.479-2.615
		c9.288,0,11.97,6.021,11.97,12.529L683.189,417.419L683.189,417.419z M676.044,410.059c-5.179-0.061-10.12,1.035-10.12,5.536
		c0,2.918,1.846,4.257,4.167,4.257c2.979,0,5.063-1.945,5.775-4.073c0.178-0.55,0.178-1.098,0.178-1.644V410.059z"/>
	<path display="inline" fill="#FFFFFF" d="M690.928,381.352h7.323v43.184h-7.323V381.352z"/>
	<path display="inline" fill="#FFFFFF" d="M705.93,417.601c1.607,1.034,4.766,2.19,7.383,2.19c3.217,0,4.646-1.399,4.646-3.345
		c0-2.008-1.19-2.98-4.764-4.319c-5.655-1.945-7.979-5.108-7.979-8.637c0-5.23,4.229-9.245,10.956-9.245
		c3.215,0,6.013,0.791,7.739,1.764l-1.488,5.231c-1.188-0.73-3.573-1.703-6.132-1.703c-2.62,0-4.05,1.338-4.05,3.162
		c0,1.886,1.37,2.734,5.062,4.136c5.298,1.887,7.683,4.623,7.739,9.002c0,5.414-4.107,9.307-11.789,9.307
		c-3.512,0-6.667-0.852-8.811-2.066L705.93,417.601z"/>
	<path display="inline" fill="#24A247" d="M729.506,420.399c0-2.801,1.905-4.807,4.525-4.807c2.679,0,4.522,1.945,4.522,4.807
		c0,2.734-1.786,4.805-4.584,4.805C731.352,425.204,729.506,423.136,729.506,420.399z"/>
	<path display="inline" fill="#24A247" d="M744.447,403.733c0-3.405-0.119-6.267-0.237-8.819h6.37l0.357,4.438h0.178
		c1.311-2.311,4.466-5.107,9.288-5.107c5.061,0,10.301,3.345,10.301,12.712v17.578h-7.323V407.81c0-4.259-1.549-7.479-5.537-7.479
		c-2.918,0-4.939,2.129-5.716,4.379c-0.238,0.607-0.355,1.52-0.355,2.372v17.456h-7.323L744.447,403.733L744.447,403.733z"/>
	<path display="inline" fill="#24A247" d="M783.683,411.823c0.18,5.353,4.229,7.664,8.932,7.664c3.393,0,5.773-0.548,8.037-1.339
		l1.069,5.106c-2.5,1.096-5.953,1.887-10.12,1.887c-9.405,0-14.942-5.898-14.942-14.962c0-8.212,4.882-15.937,14.17-15.937
		c9.407,0,12.502,7.907,12.502,14.415c0,1.396-0.118,2.494-0.237,3.163L783.683,411.823L783.683,411.823z M796.423,406.592
		c0.062-2.735-1.131-7.235-6.013-7.235c-4.525,0-6.433,4.194-6.729,7.235H796.423z"/>
	<path display="inline" fill="#24A247" d="M817.616,387.313v7.604h6.966v5.596h-6.966v13.077c0,3.649,0.952,5.476,3.751,5.476
		c1.31,0,2.022-0.063,2.855-0.306l0.119,5.656c-1.069,0.425-3.036,0.791-5.299,0.791c-2.738,0-4.939-0.912-6.311-2.433
		c-1.607-1.703-2.322-4.44-2.322-8.333V400.51h-4.108v-5.596h4.108v-5.534L817.616,387.313z"/>
</g>
<g id="XMLID_1_">
	<g>
		<path fill="#FF8700" d="M568.65,0C779.29,0,950.05,171.25,950.05,381.89c0,210.65-170.76,381.89-381.398,381.89
			c-210.65,0-381.41-169.8-381.41-380.45c0-27.89,3.18-57.33,8.88-79.33H302v244h60V304h63.51l31.11-52H209.59h-87.43h-67.7
			l180.79-56.11C300.37,78.88,425.23,0,568.65,0z M903,304v-52H679v52h90v244h56V304H903z M667,471.4V449
			c0-14.34-1.62-26.66-7.64-36.64c-4.24-6.99-8.44-12.96-15.41-17.802c5.25-4.67,10.58-10.12,14.03-16.29
			c5.289-9.47,9.02-20.76,9.02-33.58v-20.36c0-26.42-9.33-44.46-25.66-56.47c-15.31-11.23-30.17-15.86-59.2-15.86h-78.85l-31.12,52
			h107.58c10.521,0,20.94,1.52,25.271,5.28c4.051,3.52,8.979,9.39,8.979,18.24v21.53c0,7.7-5.46,10.15-10.729,14.43
			c-5.739,4.66-15.381,3.52-23.521,3.52H487v55h97.62c8.74,0,16.06,1.61,21.438,6.18c5.04,4.301,7.94,9.41,7.94,16.892v23.58
			c0,8.85-2.58,22.06-6.79,25.72c-4.479,3.91-12.54,5.63-23.07,5.63H482v48h106c32.37,0,45.12-6.88,58.62-18.311
			C661.06,517.41,667,497.64,667,471.4z"/>
	</g>
	<g>
		<path fill="none" stroke="#000000" stroke-width="0.5" stroke-linecap="round" stroke-linejoin="round" d="M568.65,0
			c-143.42,0-268.28,78.88-333.4,195.89L54.46,252h67.7h87.43h247.03l-31.11,52H362v244h-60V304H196.12
			c-5.7,22-8.88,51.44-8.88,79.33c0,210.65,170.76,380.45,381.41,380.45c210.64,0,381.398-171.24,381.398-381.89
			C950.05,171.25,779.29,0,568.65,0z"/>
		<path fill="none" stroke="#000000" stroke-width="0.5" stroke-linecap="round" stroke-linejoin="round" d="M667,344.69
			c0,12.82-3.73,24.11-9.02,33.58c-3.45,6.17-8.78,11.621-14.03,16.291c6.97,4.841,11.17,10.811,15.41,17.801
			c6.02,9.979,7.64,22.3,7.64,36.64v22.4c0,26.238-5.94,46.01-20.38,58.29C633.12,541.12,620.37,548,588,548H482v-48h102.14
			c10.53,0,18.592-1.72,23.07-5.63c4.21-3.66,6.79-16.87,6.79-25.72v-23.58c0-7.48-2.9-12.59-7.94-16.892
			c-5.38-4.568-12.698-6.18-21.438-6.18H487v-55h92.75c8.14,0,17.78,1.14,23.52-3.52c5.271-4.28,10.73-6.73,10.73-14.43v-21.53
			c0-8.85-4.93-14.72-8.98-18.24c-4.328-3.76-14.75-5.28-25.27-5.28H472.17l31.12-52h78.85c29.03,0,43.892,4.63,59.2,15.86
			c16.33,12.01,25.66,30.05,25.66,56.47V344.69z"/>
		<polygon fill="none" stroke="#000000" stroke-width="0.5" stroke-linecap="round" stroke-linejoin="round" points="825,304 
			825,548 769,548 769,304 679,304 679,252 903,252 903,304 		"/>
	</g>
</g>
</svg>
