<?xml version="1.0" encoding="UTF-8"?>
<!-- Generator: Adobe Illustrator 22.0.1, SVG Export Plug-In . SVG Version: 6.00 Build 0)  -->
<svg xmlns="http://www.w3.org/2000/svg" xmlns:xlink="http://www.w3.org/1999/xlink" version="1.1" id="Ebene_1" x="0px" y="0px" viewBox="0 0 419.5 198.4" style="enable-background:new 0 0 419.5 198.4;" xml:space="preserve">
<style type="text/css">
	.st0{fill:#9D9DA0;}
	.st1{fill:#1B1A1E;}
</style>
<g>
	<path id="by_x5F_wirecard_2_" class="st0" d="M13.2,179.1h-3v-36h3v14.3c1-1.6,2.3-2.8,4-3.6c1.7-0.8,3.4-1.2,5.3-1.2   c2,0,3.7,0.4,5.1,1.1s2.7,1.8,3.6,3c1,1.3,1.7,2.7,2.1,4.4c0.5,1.7,0.7,3.4,0.7,5.2c0,1.9-0.2,3.7-0.7,5.4   c-0.4,1.7-1.1,3.1-2.1,4.3c-1,1.2-2.2,2.2-3.6,2.9c-1.5,0.7-3.3,1.1-5.4,1.1c-0.8,0-1.7-0.1-2.6-0.4c-0.9-0.2-1.7-0.6-2.5-1   c-0.8-0.4-1.6-1-2.3-1.6c-0.7-0.7-1.2-1.4-1.7-2.3h-0.1V179.1z M13.2,166c0,1.6,0.2,3,0.6,4.4c0.4,1.4,0.9,2.5,1.7,3.5   c0.7,1,1.7,1.8,2.8,2.3c1.1,0.6,2.4,0.9,3.8,0.9c1.3,0,2.4-0.2,3.5-0.7c1.1-0.5,2-1.1,2.8-2c0.8-0.9,1.4-1.9,1.9-3.2   c0.5-1.3,0.7-2.7,0.7-4.3c0.1-1.6-0.1-3.2-0.4-4.6c-0.3-1.4-0.9-2.7-1.6-3.7c-0.7-1.1-1.7-1.9-2.8-2.5c-1.2-0.6-2.5-0.9-4-0.9   c-1.4,0-2.6,0.3-3.7,0.9c-1.1,0.6-2,1.4-2.8,2.4c-0.8,1-1.3,2.1-1.7,3.5C13.4,163.1,13.2,164.5,13.2,166z M38.5,186.1   c0.4,0.1,0.8,0.1,1.2,0.2c0.4,0.1,0.8,0.1,1.3,0.1c0.8,0,1.5-0.3,2.1-0.8c0.5-0.5,1-1.2,1.3-1.9c0.4-0.8,0.6-1.5,0.9-2.3   c0.2-0.8,0.5-1.5,0.8-2.1L36,153.1h3.4l8.3,22.3l8.3-22.3h3.3l-9.7,25.6c-0.6,1.6-1.2,3.1-1.7,4.4c-0.6,1.3-1.1,2.4-1.8,3.3   c-0.6,0.9-1.3,1.6-2.1,2.1c-0.8,0.5-1.6,0.7-2.7,0.7c-0.5,0-1,0-1.5-0.1c-0.5-0.1-0.9-0.2-1.3-0.3V186.1z M101.4,175l6.8-21.9h3.1   l-8.4,25.9h-3.2L94,157.3h-0.1l-5.8,21.8h-3.6l-7.9-25.9h3l6.7,22.1l6-22.1h3.4L101.4,175z M115.4,147.5V143h3.3v4.5H115.4z    M115.5,179.1v-25.9h3v25.9H115.5z M128.4,179.1h-3v-25.9h3v4.9h0.1c0.8-2.1,1.9-3.5,3.2-4.3c1.3-0.8,3.1-1.2,5.2-1.2v3.3   c-1.7,0-3.1,0.2-4.2,0.8c-1.1,0.6-2,1.3-2.6,2.3c-0.7,1-1.1,2.1-1.4,3.4c-0.3,1.3-0.4,2.7-0.4,4.1V179.1z M142.2,166.8   c0,1.4,0.2,2.7,0.6,4c0.4,1.3,0.9,2.3,1.6,3.3c0.7,0.9,1.6,1.7,2.7,2.2c1.1,0.6,2.4,0.8,3.8,0.8c2,0,3.7-0.5,5.1-1.6   c1.4-1,2.3-2.5,2.8-4.4h3.4c-0.4,1.2-0.9,2.4-1.5,3.4c-0.6,1.1-1.4,2-2.3,2.8c-0.9,0.8-2,1.4-3.2,1.8c-1.2,0.4-2.7,0.7-4.3,0.7   c-2.1,0-3.9-0.4-5.4-1.1c-1.5-0.7-2.7-1.7-3.7-2.9c-1-1.2-1.7-2.7-2.2-4.3c-0.5-1.7-0.7-3.4-0.7-5.3c0-1.9,0.3-3.7,0.8-5.4   c0.6-1.7,1.3-3.1,2.4-4.4c1-1.3,2.3-2.2,3.7-3c1.5-0.7,3.1-1.1,5-1.1c3.6,0,6.4,1.2,8.4,3.7c2,2.5,3,6,3,10.7H142.2z M159.1,164.3   c0-1.3-0.2-2.5-0.5-3.6c-0.4-1.1-0.9-2.1-1.6-2.9c-0.7-0.8-1.5-1.5-2.6-2c-1-0.5-2.2-0.7-3.6-0.7c-1.3,0-2.5,0.2-3.5,0.8   c-1,0.5-1.9,1.2-2.6,2c-0.7,0.8-1.3,1.8-1.7,2.9c-0.4,1.1-0.7,2.3-0.9,3.5H159.1z M186.1,161.3c-0.5-1.9-1.5-3.4-2.8-4.5   c-1.3-1.1-3-1.6-5-1.6c-1.5,0-2.9,0.3-4,1c-1.1,0.6-2,1.5-2.7,2.5c-0.7,1.1-1.2,2.2-1.6,3.6c-0.3,1.3-0.5,2.6-0.5,4   c0,1.4,0.2,2.7,0.5,4c0.3,1.3,0.8,2.5,1.5,3.5c0.7,1,1.6,1.9,2.7,2.5c1.1,0.6,2.4,0.9,4,0.9c2.2,0,4-0.6,5.4-1.9   c1.4-1.2,2.2-2.9,2.6-5.1h3.2c-0.3,1.4-0.7,2.7-1.3,3.9c-0.6,1.2-1.3,2.2-2.3,3.1c-0.9,0.9-2,1.5-3.3,2c-1.3,0.5-2.7,0.7-4.4,0.7   c-2.1,0-3.9-0.4-5.4-1.1c-1.5-0.7-2.7-1.7-3.7-2.9c-1-1.2-1.7-2.7-2.2-4.3c-0.5-1.7-0.7-3.5-0.7-5.4c0-1.8,0.3-3.5,0.8-5.2   c0.5-1.7,1.3-3.1,2.3-4.4c1-1.3,2.2-2.3,3.7-3c1.5-0.8,3.2-1.1,5.1-1.1c3,0,5.4,0.7,7.3,2.2c1.9,1.4,3,3.7,3.5,6.7H186.1z    M207,163.9c0.6-0.1,1.2-0.2,2-0.3c0.8-0.1,1.4-0.3,1.9-0.6c0.5-0.2,0.8-0.6,0.9-1.2c0.1-0.6,0.2-1.1,0.2-1.5   c0-1.5-0.5-2.8-1.5-3.8c-1-1-2.6-1.5-5-1.5c-1,0-2,0.1-2.9,0.3c-0.9,0.2-1.6,0.5-2.3,1c-0.7,0.5-1.2,1.1-1.6,1.8   c-0.4,0.8-0.7,1.7-0.8,2.8H195c0.1-1.5,0.5-2.8,1.1-3.9c0.6-1.1,1.4-2,2.3-2.7c1-0.7,2.1-1.2,3.3-1.5c1.3-0.3,2.6-0.5,4-0.5   c1.3,0,2.5,0.1,3.7,0.4c1.2,0.3,2.2,0.7,3,1.4c0.9,0.6,1.5,1.4,2,2.5c0.5,1,0.7,2.3,0.7,3.8v14.1c0,1.2,0.2,1.9,0.6,2.2   c0.4,0.3,1.3,0.2,2.5-0.2v2.4c-0.2,0.1-0.6,0.2-1,0.3c-0.5,0.1-0.9,0.2-1.3,0.2c-0.5,0-0.9-0.1-1.4-0.2c-0.5-0.1-0.9-0.2-1.2-0.5   c-0.3-0.3-0.5-0.6-0.7-0.9c-0.2-0.4-0.3-0.7-0.4-1.2c-0.1-0.4-0.1-0.9-0.1-1.3c-1.3,1.4-2.7,2.5-4.4,3.2c-1.6,0.7-3.4,1.1-5.3,1.1   c-1.1,0-2.2-0.2-3.3-0.5c-1.1-0.3-2-0.8-2.8-1.4c-0.8-0.6-1.4-1.4-1.9-2.3c-0.5-0.9-0.7-2-0.7-3.3c0-4.4,3-7,9.1-7.8L207,163.9z    M212.1,165.4c-1.3,0.5-2.6,0.9-3.9,1.1c-1.3,0.2-2.6,0.3-3.9,0.4c-2.3,0.2-4.1,0.7-5.4,1.6c-1.3,0.9-1.9,2.2-1.9,4   c0,0.8,0.2,1.5,0.5,2.1c0.3,0.6,0.7,1.1,1.3,1.5c0.5,0.4,1.1,0.7,1.8,0.9c0.7,0.2,1.4,0.3,2.1,0.3c1.2,0,2.4-0.2,3.5-0.5   c1.1-0.3,2.1-0.8,3-1.4c0.9-0.6,1.6-1.4,2.1-2.4c0.5-1,0.8-2.1,0.8-3.4V165.4z M225.6,179.1h-3v-25.9h3v4.9h0.1   c0.8-2.1,1.9-3.5,3.2-4.3c1.3-0.8,3.1-1.2,5.2-1.2v3.3c-1.7,0-3.1,0.2-4.2,0.8c-1.1,0.6-2,1.3-2.6,2.3c-0.7,1-1.1,2.1-1.4,3.4   c-0.3,1.3-0.4,2.7-0.4,4.1V179.1z M257.4,143h3v36h-3v-4.6h-0.1c-0.4,0.9-1,1.6-1.7,2.3c-0.7,0.7-1.4,1.2-2.3,1.6   c-0.8,0.4-1.7,0.8-2.5,1c-0.9,0.2-1.7,0.4-2.6,0.4c-2.1,0-3.9-0.4-5.4-1.1c-1.5-0.7-2.7-1.7-3.6-2.9c-1-1.2-1.6-2.7-2.1-4.3   c-0.4-1.7-0.7-3.5-0.7-5.4c0-1.8,0.2-3.5,0.7-5.2c0.5-1.7,1.2-3.1,2.1-4.4c1-1.3,2.2-2.3,3.6-3c1.5-0.8,3.2-1.1,5.1-1.1   c1.8,0,3.6,0.4,5.3,1.2c1.7,0.8,3,2,4,3.6V143z M257.4,166c0-1.5-0.2-2.9-0.6-4.2c-0.4-1.3-1-2.5-1.7-3.5c-0.8-1-1.7-1.8-2.8-2.4   c-1.1-0.6-2.3-0.9-3.7-0.9c-1.6,0-2.9,0.3-4.1,0.9c-1.1,0.6-2.1,1.5-2.8,2.5c-0.7,1.1-1.3,2.3-1.6,3.7c-0.3,1.4-0.5,2.9-0.4,4.6   c0,1.6,0.2,3.1,0.7,4.3c0.5,1.3,1.1,2.3,1.9,3.2c0.8,0.9,1.7,1.5,2.8,2c1.1,0.5,2.2,0.7,3.5,0.7c1.4,0,2.7-0.3,3.8-0.9   c1.1-0.6,2-1.3,2.8-2.3c0.7-1,1.3-2.2,1.7-3.5C257.2,169,257.4,167.6,257.4,166z"></path>
	<path id="SUPR_2_" class="st1" d="M60.8,83.9c0,0,12,11,25.4,11c5.3,0,11.1-2.1,11.1-8.5c0-12.6-47.8-12.2-47.8-44.8   C49.5,22.1,65.9,9.2,87,9.2c22.8,0,34.1,12,34.1,12l-11,21.2c0,0-10.7-9.3-23.4-9.3c-5.3,0-11.3,2.4-11.3,8.3   c0,13.4,47.8,11,47.8,44.5c0,17.7-13.5,32.9-37.4,32.9c-24.9,0-38.7-15.1-38.7-15.1L60.8,83.9z M132.4,10.9h26V78   c0,11.1,7.3,17.1,18.4,17.1c11.1,0,18.4-5.9,18.4-17.1V10.9h26V78c0,23.9-17.5,40.8-44.2,40.8c-27,0-44.5-16.9-44.5-40.8V10.9z    M234.5,10.9h44.1c20.6,0,34.6,15.1,34.6,36.5c0,21.4-13.9,36.8-34.6,36.8h-18.1V117h-26V10.9z M273.2,62c9,0,13.5-6.1,13.5-14.5   s-4.5-14.2-13.1-14.2h-13.2V62H273.2z M323.5,10.9h36.9c10.8,0,16,0.7,20.6,2.5c12,4.6,19.6,15.4,19.6,30.9   c0,11.3-5.3,23.6-15.9,28.9v0.3c0,0,1.5,1.9,4,6.4l20.6,37.1h-28.9l-18.8-35.8h-12.2V117h-26V10.9z M360.7,59   c8.3,0,13.5-4.6,13.5-13.1c0-8-3-12.8-16-12.8h-8.8V59H360.7z"></path>
</g>
</svg>
