<?xml version="1.0" standalone="no"?>
<!DOCTYPE svg PUBLIC "-//W3C//DTD SVG 20010904//EN"
 "http://www.w3.org/TR/2001/REC-SVG-20010904/DTD/svg10.dtd">
<svg version="1.0" xmlns="http://www.w3.org/2000/svg"
 width="100.000000pt" height="100.000000pt" viewBox="0 0 100.000000 100.000000"
 preserveAspectRatio="xMidYMid meet">
<metadata>
Created by potrace 1.11, written by Peter Selinger 2001-2013
</metadata>
<g transform="translate(0.000000,100.000000) scale(0.100000,-0.100000)"
fill="#000000" stroke="none">
<path d="M106 760 c-1 -3 -2 -23 -1 -45 2 -22 6 -112 10 -200 4 -88 8 -171 10
-185 1 -14 3 -35 4 -47 1 -19 7 -23 34 -23 37 0 33 -6 142 224 31 65 58 116
60 114 3 -2 7 -62 11 -134 4 -71 8 -136 10 -144 1 -8 3 -25 3 -37 1 -19 7 -23
35 -23 34 0 36 2 78 92 24 51 66 140 94 198 49 100 50 105 30 111 -12 3 -34 3
-50 -1 -26 -5 -33 -16 -73 -120 -25 -63 -48 -118 -52 -122 -3 -4 -8 52 -10
125 -3 117 -7 200 -10 218 -1 5 -34 5 -62 0 -3 -1 -16 -25 -29 -53 -13 -29
-45 -99 -72 -156 -26 -57 -48 -107 -48 -112 0 -5 -5 -12 -11 -15 -7 -5 -10 43
-8 156 1 90 1 169 0 174 -1 11 -90 15 -95 5z"/>
<path d="M585 752 c-14 -37 -6 -42 65 -42 60 0 71 3 80 21 7 11 9 24 5 27 -4
4 -38 7 -76 8 -49 0 -70 -4 -74 -14z"/>
<path d="M748 642 c-32 -68 -58 -127 -58 -131 0 -5 10 -8 23 -7 66 5 111 -35
109 -97 -2 -63 -46 -99 -122 -99 -3 0 -22 2 -42 6 -31 6 -37 4 -43 -15 -11
-32 8 -42 82 -43 137 -1 192 58 185 197 -2 35 -61 97 -91 97 -12 0 -21 4 -21
10 0 5 18 46 39 90 56 113 56 116 24 116 -24 0 -31 -11 -85 -124z"/>
</g>
</svg>
