<?xml version="1.0"?>
<svg xmlns="http://www.w3.org/2000/svg" viewBox="-50 0 512 512" width="512px" height="512px"><path d="m86.128906 497h-71.128906v-482h275.296875v99.789062c0 4.144532 3.355469 7.5 7.5 7.5h107.304687c3.03125 0 5.765626-1.828124 6.925782-4.628906 1.164062-2.804687.523437-6.027344-1.625-8.175781l-107.300782-107.285156c-.238281-.238281-.496093-.457031-.765624-.660157-.058594-.042968-.113282-.085937-.175782-.128906-.265625-.191406-.542968-.371094-.835937-.527344-.019531-.011718-.039063-.019531-.058594-.027343-.277344-.144531-.566406-.269531-.859375-.378907-.058594-.023437-.117188-.042968-.175781-.066406-.316407-.105468-.632813-.199218-.964844-.265625-.011719 0-.027344-.003906-.042969-.003906-.296875-.0585938-.601562-.09375-.910156-.1132812-.089844-.0078126-.179688-.0117188-.269531-.015625-.085938 0-.164063-.0117188-.246094-.0117188h-290.296875c-4.144531 0-7.5 3.359375-7.5 7.5v497c0 4.140625 3.355469 7.5 7.5 7.5h78.628906c4.140625 0 7.5-3.359375 7.5-7.5s-3.359375-7.5-7.5-7.5zm219.167969-389.710938v-81.683593l81.695313 81.683593zm0 0" fill="#006DF0"/><path d="m405.101562 137.1875c-4.144531 0-7.5 3.359375-7.5 7.5v352.3125h-280.945312c-4.140625 0-7.5 3.359375-7.5 7.5s3.359375 7.5 7.5 7.5h288.445312c4.140626 0 7.5-3.359375 7.5-7.5v-359.8125c0-4.140625-3.359374-7.5-7.5-7.5zm0 0" fill="#006DF0"/><path d="m68.285156 163.515625c-4.140625 0-7.5 3.359375-7.5 7.5v268.359375c0 4.144531 3.359375 7.5 7.5 7.5h276.027344c4.140625 0 7.5-3.355469 7.5-7.5v-268.359375c0-4.140625-3.359375-7.5-7.5-7.5zm268.527344 15v156.988281l-49.082031-54.496094c-2.644531-2.933593-7.109375-3.316406-10.214844-.871093l-84.554687 66.574219-45.070313-69.859376c-1.300781-2.015624-3.484375-3.285156-5.878906-3.421874-2.394531-.140626-4.707031.878906-6.226563 2.734374l-60 73.21875v-170.867187zm-261.027344 194.535156 65.078125-79.417969 89.191407 138.246094h-154.269532zm172.121094 58.824219-46.777344-72.503906 80.152344-63.105469 55.53125 61.648437v73.964844h-88.90625zm0 0" fill="#006DF0"/><path d="m225.929688 273.082031c21.046874 0 38.167968-17.121093 38.167968-38.167969 0-21.046874-17.121094-38.171874-38.167968-38.171874-21.046876 0-38.171876 17.125-38.171876 38.171874 0 21.046876 17.125 38.167969 38.171876 38.167969zm0-61.339843c12.773437 0 23.167968 10.394531 23.167968 23.167968 0 12.777344-10.394531 23.171875-23.167968 23.171875-12.777344 0-23.171876-10.394531-23.171876-23.171875 0-12.773437 10.394532-23.167968 23.171876-23.167968zm0 0" fill="#006DF0"/></svg>
