<?xml version="1.0" encoding="utf-8"?>
<!-- Generator: Adobe Illustrator 16.0.0, SVG Export Plug-In . SVG Version: 6.00 Build 0)  -->
<!DOCTYPE svg PUBLIC "-//W3C//DTD SVG 1.1//EN" "http://www.w3.org/Graphics/SVG/1.1/DTD/svg11.dtd">
<svg version="1.1" id="Layer_1" xmlns="http://www.w3.org/2000/svg" xmlns:xlink="http://www.w3.org/1999/xlink" x="0px" y="0px"
	 width="1024px" height="768px" viewBox="0 0 1024 768" enable-background="new 0 0 1024 768" xml:space="preserve">
<rect x="16" y="213" display="none" width="991" height="353"/>
<g display="none">
	<path display="inline" fill="#F18F0A" d="M344.977,391.325h-10.836v-7.785h30.84v7.785h-10.955v33.21h-9.05V391.325z"/>
	<path display="inline" fill="#F18F0A" d="M379.505,424.535v-16.788l-12.682-24.207h10.419l4.048,9.854
		c1.25,2.98,2.144,5.171,3.096,7.847h0.119c0.893-2.555,1.846-4.927,3.037-7.847l4.048-9.854h10.182l-13.218,23.903v17.092H379.505z
		"/>
	<path display="inline" fill="#F18F0A" d="M405.045,384.088c2.798-0.487,6.728-0.851,12.265-0.851c5.597,0,9.585,1.094,12.265,3.285
		c2.619,2.068,4.287,5.474,4.287,9.487c0,4.016-1.25,7.481-3.691,9.732c-3.096,2.919-7.68,4.317-13.039,4.317
		c-1.191,0-2.262-0.061-3.096-0.243v14.72h-8.99V384.088z M414.036,402.699c0.774,0.183,1.667,0.243,3.036,0.243
		c4.823,0,7.8-2.493,7.8-6.629c0-3.771-2.56-6.021-7.145-6.021c-1.786,0-3.036,0.121-3.691,0.304V402.699z"/>
	<path display="inline" fill="#F18F0A" d="M476.369,403.611c0,13.503-7.918,21.593-19.707,21.593
		c-11.848,0-18.874-9.185-18.874-20.923c0-12.286,7.74-21.471,19.528-21.471C469.641,382.811,476.369,392.239,476.369,403.611z
		 M447.374,404.099c0,8.089,3.691,13.745,9.764,13.745c6.132,0,9.645-5.96,9.645-13.927c0-7.421-3.394-13.746-9.645-13.746
		C450.946,390.171,447.374,396.132,447.374,404.099z"/>
	<path display="inline" fill="#F18F0A" d="M482.5,415.472c1.607,0.913,5.299,2.433,8.99,2.433c4.703,0,7.084-2.31,7.084-5.229
		c0-3.953-3.81-5.718-7.798-5.718h-3.691v-6.629h3.573c3.037,0,6.847-1.218,6.847-4.563c0-2.372-1.847-4.135-5.715-4.135
		c-3.156,0-6.49,1.398-8.038,2.371l-1.846-6.69c2.322-1.521,6.907-2.98,11.967-2.98c8.217,0,12.8,4.44,12.8,9.854
		c0,4.196-2.321,7.542-7.084,9.185v0.121c4.644,0.852,8.394,4.44,8.394,9.67c0,6.935-6.013,12.044-15.836,12.044
		c-5.001,0-9.229-1.339-11.491-2.738L482.5,415.472z"/>
	<path display="inline" fill="#FFFFFF" d="M523.757,387.312v7.603h6.966v5.596h-6.966v13.077c0,3.649,0.953,5.474,3.751,5.474
		c1.31,0,2.024-0.061,2.858-0.304l0.118,5.656c-1.071,0.425-3.036,0.791-5.299,0.791c-2.737,0-4.941-0.912-6.311-2.433
		c-1.607-1.703-2.322-4.44-2.322-8.333V400.51h-4.107v-5.596h4.107v-5.534L523.757,387.312z"/>
	<path display="inline" fill="#FFFFFF" d="M562.217,415.655c0,3.527,0.118,6.446,0.238,8.88h-6.37l-0.357-4.44h-0.18
		c-1.249,2.068-4.107,5.109-9.346,5.109c-5.24,0-10.063-3.224-10.063-12.896v-17.395h7.323v16.118c0,4.927,1.547,8.089,5.417,8.089
		c2.979,0,4.884-2.068,5.597-4.014c0.299-0.608,0.418-1.46,0.418-2.312v-17.882h7.322V415.655z"/>
	<path display="inline" fill="#FFFFFF" d="M578.528,387.312v7.603h6.965v5.596h-6.965v13.077c0,3.649,0.952,5.474,3.751,5.474
		c1.309,0,2.023-0.061,2.857-0.304l0.119,5.656c-1.071,0.425-3.036,0.791-5.3,0.791c-2.737,0-4.941-0.912-6.31-2.433
		c-1.608-1.703-2.323-4.44-2.323-8.333V400.51h-4.107v-5.596h4.107v-5.534L578.528,387.312z"/>
	<path display="inline" fill="#FFFFFF" d="M618.238,409.451c0,10.888-7.502,15.753-14.885,15.753
		c-8.155,0-14.526-5.717-14.526-15.267c0-9.731,6.252-15.692,15.004-15.692C612.464,394.245,618.238,400.449,618.238,409.451z
		 M596.389,409.755c0,5.717,2.798,10.036,7.204,10.036c4.167,0,7.084-4.136,7.084-10.157c0-4.623-2.023-9.976-7.024-9.976
		C598.472,399.658,596.389,404.829,596.389,409.755z"/>
	<path display="inline" fill="#FFFFFF" d="M624.25,404.463c0-4.014-0.06-6.934-0.238-9.549h6.311l0.299,5.596h0.178
		c1.429-4.136,4.823-6.265,7.978-6.265c0.715,0,1.133,0.061,1.728,0.183v6.994c-0.655-0.121-1.31-0.182-2.203-0.182
		c-3.453,0-5.894,2.25-6.549,5.655c-0.119,0.67-0.179,1.46-0.179,2.251v15.389h-7.323V404.463z"/>
	<path display="inline" fill="#FFFFFF" d="M653.243,386.643c0,2.189-1.607,4.014-4.168,4.014c-2.441,0-4.048-1.824-4.048-4.014
		c0-2.312,1.666-4.075,4.107-4.075C651.636,382.567,653.184,384.331,653.243,386.643z M645.443,424.535v-29.621h7.324v29.621
		H645.443z"/>
	<path display="inline" fill="#FFFFFF" d="M683.189,417.419c0,2.676,0.119,5.291,0.476,7.116h-6.608l-0.535-3.284h-0.179
		c-1.727,2.311-4.763,3.953-8.573,3.953c-5.836,0-9.109-4.319-9.109-8.819c0-7.421,6.489-11.252,17.206-11.191v-0.486
		c0-1.946-0.774-5.17-5.895-5.17c-2.857,0-5.834,0.912-7.799,2.189l-1.43-4.866c2.144-1.337,5.895-2.615,10.479-2.615
		c9.288,0,11.968,6.021,11.968,12.529V417.419z M676.044,410.059c-5.179-0.061-10.12,1.035-10.12,5.536
		c0,2.918,1.846,4.257,4.167,4.257c2.977,0,5.061-1.947,5.775-4.075c0.178-0.548,0.178-1.096,0.178-1.642V410.059z"/>
	<path display="inline" fill="#FFFFFF" d="M690.928,381.352h7.323v43.184h-7.323V381.352z"/>
	<path display="inline" fill="#FFFFFF" d="M705.93,417.601c1.607,1.034,4.764,2.19,7.383,2.19c3.215,0,4.644-1.399,4.644-3.345
		c0-2.008-1.19-2.98-4.764-4.319c-5.655-1.945-7.978-5.108-7.978-8.637c0-5.23,4.227-9.245,10.956-9.245
		c3.215,0,6.013,0.791,7.739,1.764l-1.488,5.231c-1.19-0.73-3.573-1.703-6.132-1.703c-2.62,0-4.05,1.338-4.05,3.162
		c0,1.886,1.37,2.736,5.062,4.136c5.298,1.887,7.681,4.623,7.739,9.002c0,5.414-4.107,9.307-11.789,9.307
		c-3.512,0-6.667-0.852-8.811-2.068L705.93,417.601z"/>
	<path display="inline" fill="#24A247" d="M729.506,420.399c0-2.799,1.905-4.805,4.525-4.805c2.679,0,4.524,1.945,4.524,4.805
		c0,2.736-1.786,4.805-4.584,4.805C731.352,425.204,729.506,423.136,729.506,420.399z"/>
	<path display="inline" fill="#24A247" d="M744.447,403.733c0-3.405-0.119-6.265-0.237-8.819h6.37l0.357,4.44h0.178
		c1.311-2.311,4.466-5.109,9.288-5.109c5.061,0,10.301,3.345,10.301,12.712v17.578h-7.323V407.81c0-4.259-1.549-7.481-5.537-7.481
		c-2.918,0-4.941,2.129-5.716,4.379c-0.238,0.607-0.357,1.52-0.357,2.372v17.456h-7.323V403.733z"/>
	<path display="inline" fill="#24A247" d="M783.683,411.823c0.178,5.353,4.227,7.664,8.93,7.664c3.393,0,5.775-0.548,8.037-1.339
		l1.071,5.108c-2.5,1.096-5.953,1.887-10.12,1.887c-9.407,0-14.944-5.9-14.944-14.962c0-8.212,4.882-15.937,14.17-15.937
		c9.407,0,12.502,7.907,12.502,14.415c0,1.398-0.118,2.494-0.237,3.163H783.683z M796.423,406.592
		c0.06-2.737-1.131-7.237-6.013-7.237c-4.525,0-6.431,4.196-6.728,7.237H796.423z"/>
	<path display="inline" fill="#24A247" d="M817.616,387.312v7.603h6.966v5.596h-6.966v13.077c0,3.649,0.952,5.474,3.751,5.474
		c1.31,0,2.024-0.061,2.857-0.304l0.119,5.656c-1.071,0.425-3.036,0.791-5.299,0.791c-2.738,0-4.941-0.912-6.311-2.433
		c-1.607-1.703-2.322-4.44-2.322-8.333V400.51h-4.108v-5.596h4.108v-5.534L817.616,387.312z"/>
</g>
<path fill="#F18F0A" d="M568.649,0C425.228,0,300.374,78.875,235.254,195.892L54.457,252h67.699h87.437h247.026l-31.113,52H362v244
	h-60V304H196.123c-5.699,22-8.882,51.435-8.882,79.334c0,210.649,170.761,380.447,381.409,380.447
	c210.642,0,381.404-171.243,381.404-381.894C950.054,171.253,779.291,0,568.649,0z M667,344.692c0,12.818-3.732,24.112-9.018,33.576
	c-3.451,6.173-8.78,11.625-14.033,16.295c6.971,4.841,11.175,10.807,15.407,17.797c6.025,9.976,7.644,22.298,7.644,36.635V471.4
	c0,26.24-5.938,46.013-20.383,58.286C633.125,541.124,620.374,548,587.996,548H482v-48h102.138c10.529,0,18.593-1.722,23.075-5.634
	c4.209-3.66,6.787-16.864,6.787-25.717v-23.578c0-7.482-2.898-12.592-7.943-16.889c-5.379-4.572-12.7-6.183-21.433-6.183H487v-55
	h92.75c8.138,0,17.775,1.145,23.521-3.523c5.271-4.278,10.729-6.729,10.729-14.422v-21.537c0-8.849-4.934-14.721-8.977-18.234
	c-4.33-3.762-14.752-5.283-25.273-5.283H472.175l31.112-52h78.856c29.03,0,43.884,4.635,59.196,15.862
	c16.336,12.009,25.66,30.044,25.66,56.465V344.692z M825,304v244h-56V304h-90v-52h224v52H825z"/>
<g>
</g>
<g>
</g>
<g>
</g>
<g>
</g>
<g>
</g>
<g>
</g>
<g>
</g>
<g>
</g>
<g>
</g>
<g>
</g>
<g>
</g>
<g>
</g>
<g>
</g>
<g>
</g>
<g>
</g>
<g>
</g>
<g>
</g>
<g>
</g>
</svg>
