<svg xmlns="http://www.w3.org/2000/svg" viewBox="0 0 263.17 51.39"><defs><style>.cls-1{fill:#e85215;}.cls-2{fill:#517485;}.cls-3{fill:#e0e0e0;}</style></defs><title>Asset 1</title><g id="Layer_2" data-name="Layer 2"><g id="Ebene_1" data-name="Ebene 1"><polygon class="cls-1" points="63.99 0.13 49.01 0.13 46.88 5.14 61.6 5.14 63.99 0.13"/><path class="cls-1" d="M77,29.39A13,13,0,0,0,74.18,25a12.17,12.17,0,0,0-4.25-2.81,15,15,0,0,0-4.27-1L75.65.13H70.34L58.18,26H61q5.25,0,8.24,2.45t3,7.49a10.33,10.33,0,0,1-.86,4.25,9.92,9.92,0,0,1-6,5.47,13.82,13.82,0,0,1-4.54.72,21.94,21.94,0,0,1-5.08-.54,19.63,19.63,0,0,1-3.92-1.33l-1.51,5.11a24.47,24.47,0,0,0,4.54,1.3,30.78,30.78,0,0,0,5.83.5,20.62,20.62,0,0,0,6.7-1.08,16.16,16.16,0,0,0,5.51-3.13,14.74,14.74,0,0,0,3.71-5.08A16.62,16.62,0,0,0,78,35.19,15.71,15.71,0,0,0,77,29.39Z"/><polygon class="cls-2" points="44.97 10.33 34.31 37.13 33.94 37.13 32.79 0.12 26.46 0.12 9.42 37.13 9.06 37.13 9.86 0.12 0 0.12 2.44 50.88 8.99 50.88 26.03 15.17 26.46 15.17 28.55 50.88 35.09 50.88 54.22 10.33 44.97 10.33"/><path class="cls-3" d="M99.33.38h11.31V3.71h-7.58V8.15H110v3.33h-6.9v4.66h7.71v3.33H99.33Z"/><path class="cls-3" d="M120.51,11.59l.49,3.24h.14l.55-3.27L125.34.38h3.93L122.17,19.6H119.5L112.36.38h4.33Z"/><path class="cls-3" d="M131.33.38h11.31V3.71h-7.58V8.15H142v3.33h-6.9v4.66h7.71v3.33H131.33Z"/><path class="cls-3" d="M158.32,19.46H146.25V.38H150V16.14h8.34Z"/><path class="cls-3" d="M157.81,9.92q0-4.77,2.1-7.35a7.29,7.29,0,0,1,6-2.58,8.41,8.41,0,0,1,3.57.71,6.73,6.73,0,0,1,2.54,2,8.82,8.82,0,0,1,1.5,3.13A15.65,15.65,0,0,1,174,9.92q0,4.77-2.11,7.35a7.3,7.3,0,0,1-6,2.58,8.49,8.49,0,0,1-3.6-.71,6.61,6.61,0,0,1-2.52-2A8.94,8.94,0,0,1,158.3,14,15.65,15.65,0,0,1,157.81,9.92Zm3.93,0a13.39,13.39,0,0,0,.25,2.66,6.85,6.85,0,0,0,.75,2.09A3.82,3.82,0,0,0,164,16a3.5,3.5,0,0,0,1.88.49A3.55,3.55,0,0,0,169,15a9,9,0,0,0,1.09-5,13.68,13.68,0,0,0-.23-2.59,7.22,7.22,0,0,0-.72-2.1,3.77,3.77,0,0,0-1.28-1.4,3.84,3.84,0,0,0-5,1.09A9,9,0,0,0,161.73,9.92Z"/><path class="cls-3" d="M177.35.57q1.15-.22,2.52-.34t2.74-.12a17.82,17.82,0,0,1,2.85.23,7.11,7.11,0,0,1,2.58.93A5.39,5.39,0,0,1,189.9,3.2a6.37,6.37,0,0,1,.72,3.23,6.69,6.69,0,0,1-.63,3,5.81,5.81,0,0,1-1.66,2A6.71,6.71,0,0,1,186,12.65a10.54,10.54,0,0,1-2.74.35h-1.06l-.64,0-.45-.05v6.57h-3.73Zm5.56,2.75c-.36,0-.71,0-1,0s-.59.06-.79.09V9.65l.33.05.46,0h.82a7.78,7.78,0,0,0,1.46-.14,3.61,3.61,0,0,0,1.29-.5,2.63,2.63,0,0,0,.91-1,3.73,3.73,0,0,0,.34-1.72,3,3,0,0,0-.33-1.49,2.68,2.68,0,0,0-.86-.94,3.37,3.37,0,0,0-1.21-.49A7.15,7.15,0,0,0,182.91,3.33Z"/><path class="cls-3" d="M208.43,9.57l.41-3.79h-.16L207.5,8.83l-4.06,7.12h-1.2L198,8.81l-1.2-3h-.14l.54,3.76v9.92h-3.54V.38H197l5.1,8.72.9,2.18h.11L204,9.05,208.78.38h3.38V19.46h-3.73Z"/><path class="cls-3" d="M216.12.38h11.31V3.71h-7.58V8.15h6.9v3.33h-6.9v4.66h7.71v3.33H216.12Z"/><path class="cls-3" d="M235.77,9.51l-1.5-3h-.14l.44,3v10H231V.25h2.73L241,10.41l1.45,2.92h.14l-.44-2.92V.38h3.54V19.6h-2.73Z"/><path class="cls-3" d="M263.17,3.71h-5.56V19.46h-3.73V3.71h-5.59V.38h14.88Z"/><path class="cls-3" d="M95.46,5.86a8,8,0,0,0-1.64-3.05,7.38,7.38,0,0,0-2.92-2,11.53,11.53,0,0,0-4-.7L85.35,3.44h1.77A5,5,0,0,1,89.43,4,4.55,4.55,0,0,1,91,5.48a5.64,5.64,0,0,1,.8,2,11.85,11.85,0,0,1,.22,2.25,12.51,12.51,0,0,1-.25,2.49,6,6,0,0,1-.86,2.14,4.47,4.47,0,0,1-1.66,1.49,5.21,5.21,0,0,1-2.16.54v0H79.17l-1.58,3.33h9a10.91,10.91,0,0,0,4.25-.83,8.18,8.18,0,0,0,3-2.24,8.46,8.46,0,0,0,1.64-3.19A14.13,14.13,0,0,0,96,9.76,13.88,13.88,0,0,0,95.46,5.86Z"/></g></g></svg>